<?xml version="1.0" encoding="utf-8"?>
<!-- Generator: Adobe Illustrator 24.1.0, SVG Export Plug-In . SVG Version: 6.00 Build 0)  -->
<svg version="1.1" id="Capa_1" xmlns="http://www.w3.org/2000/svg" xmlns:xlink="http://www.w3.org/1999/xlink" x="0px" y="0px"
	 viewBox="0 0 51 51" style="enable-background:new 0 0 51 51;" xml:space="preserve">
<style type="text/css">
	.st0{fill:#F2F7F2;}
</style>
<path class="st0" d="M19.9,22.5c0.6-0.4,1-1.1,0.9-1.9c0.1-0.9-0.4-1.7-1.2-2c-0.8-0.2-1.7-0.4-2.5-0.3h-4.7V23h5.2
	C18.4,23,19.2,22.8,19.9,22.5z"/>
<path class="st0" d="M35,23.1c-0.9-0.1-1.8,0.3-2.5,0.9c-0.6,0.7-1,1.5-1.1,2.4h7.2c0-0.9-0.4-1.8-1.1-2.4
	C36.8,23.4,35.9,23.1,35,23.1z"/>
<path class="st0" d="M19.8,26.9c-0.7-0.3-1.4-0.4-2.2-0.4h-5.3v5.7h5.2c0.7,0,1.5-0.1,2.2-0.4c1-0.5,1.5-1.6,1.4-2.7
	C21.3,28.2,20.7,27.2,19.8,26.9z"/>
<path class="st0" d="M25.5,0.5c-13.8,0-25,11.2-25,25s11.2,25,25,25s25-11.2,25-25S39.3,0.5,25.5,0.5z M30.4,15.6h9.2v2.6h-9.2V15.6
	z M24.8,32.8c-0.4,0.6-0.9,1.2-1.5,1.7c-0.7,0.5-1.5,0.9-2.4,1.1c-1,0.2-2,0.3-3,0.3H8.1V14.6h10.4c2.6,0,4.5,0.8,5.6,2.3
	c0.7,0.9,1,2.1,1,3.2c0.1,1.1-0.3,2.2-1,3.1c-0.5,0.5-1,0.9-1.6,1.2c1,0.3,1.9,1,2.5,1.9c0.6,0.9,0.9,2,0.8,3.1
	C25.8,30.6,25.4,31.8,24.8,32.8z M42.9,29.2H31.3c-0.1,1.3,0.6,2.6,1.7,3.3c0.7,0.4,1.5,0.6,2.3,0.6c1.3,0.1,2.6-0.6,3.2-1.8h4.2
	c-0.2,1.1-0.7,2.1-1.5,2.8c-1.6,1.6-3.8,2.4-6,2.3c-2,0-4-0.7-5.6-1.9c-1.6-1.3-2.4-3.4-2.4-6.3c-0.2-2.3,0.6-4.6,2.2-6.3
	c1.5-1.5,3.6-2.2,5.7-2.2c1.3,0,2.6,0.2,3.7,0.7c1.1,0.5,2.1,1.3,2.8,2.3c0.7,1,1.1,2.1,1.3,3.2C42.9,27,43,28.1,42.9,29.2z"/>
</svg>
