<?xml version="1.0" encoding="utf-8"?>
<!-- Generator: Adobe Illustrator 24.1.0, SVG Export Plug-In . SVG Version: 6.00 Build 0)  -->
<svg version="1.1" id="Capa_1" xmlns="http://www.w3.org/2000/svg" xmlns:xlink="http://www.w3.org/1999/xlink" x="0px" y="0px"
	 viewBox="0 0 51 51" style="enable-background:new 0 0 51 51;" xml:space="preserve">
<style type="text/css">
	.st0{fill:#F2F7F2;}
</style>
<path class="st0" d="M25.5,0.5c-13.8,0-25,11.2-25,25s11.2,25,25,25s25-11.2,25-25S39.3,0.5,25.5,0.5z M18.2,38.3h-6.1V20h6.1V38.3z
	 M15.2,17.5L15.2,17.5c-1.7,0.1-3.2-1.3-3.3-3c-0.1-1.7,1.3-3.2,3-3.3c0.1,0,0.2,0,0.3,0c1.7-0.2,3.3,1.1,3.5,2.9s-1.1,3.3-2.9,3.5
	C15.7,17.5,15.5,17.5,15.2,17.5L15.2,17.5z M40.2,38.3h-6.1v-9.8c0-2.5-0.9-4.1-3.1-4.1c-1.4,0-2.7,0.9-3.1,2.2
	c-0.2,0.5-0.2,1-0.2,1.5v10.2h-6.1c0,0,0.1-16.6,0-18.3h6.1v2.6c1.1-2,3.2-3.1,5.5-3c4,0,7,2.6,7,8.2L40.2,38.3z"/>
</svg>
