<?xml version="1.0" encoding="utf-8"?>
<!-- Generator: Adobe Illustrator 24.1.0, SVG Export Plug-In . SVG Version: 6.00 Build 0)  -->
<svg version="1.1" id="Capa_1" xmlns="http://www.w3.org/2000/svg" xmlns:xlink="http://www.w3.org/1999/xlink" x="0px" y="0px"
	 viewBox="0 0 51 51" style="enable-background:new 0 0 51 51;" xml:space="preserve">
<style type="text/css">
	.st0{fill:#F2F7F2;}
</style>
<path class="st0" d="M25.5,0.5c-13.8,0-25,11.2-25,25s11.2,25,25,25s25-11.2,25-25S39.3,0.5,25.5,0.5z M36.9,20c0,0.2,0,0.5,0,0.7
	c0,7.6-5.8,16.3-16.3,16.3l0,0c-3.1,0-6.2-0.9-8.8-2.6c0.5,0.1,0.9,0.1,1.4,0.1c2.6,0,5.1-0.9,7.1-2.5c-2.5-0.1-4.6-1.7-5.4-4
	c0.4,0.1,0.7,0.1,1.1,0.1c0.5,0,1-0.1,1.5-0.2c-2.7-0.5-4.6-2.9-4.6-5.6v-0.1c0.8,0.4,1.7,0.7,2.6,0.7C13.9,22,13,20.2,13,18.3
	c0-1,0.3-2,0.8-2.9c2.9,3.6,7.2,5.8,11.8,6c-0.1-0.4-0.2-0.9-0.1-1.3c0-3.2,2.6-5.7,5.7-5.7c1.6,0,3.1,0.7,4.2,1.8
	c1.3-0.3,2.5-0.7,3.6-1.4c-0.4,1.3-1.3,2.5-2.5,3.2c1.1-0.1,2.3-0.4,3.3-0.9C39,18.2,38,19.2,36.9,20L36.9,20z"/>
</svg>
